<?xml version="1.0" encoding="iso-8859-1"?>
<!-- Generator: Adobe Illustrator 19.0.0, SVG Export Plug-In . SVG Version: 6.00 Build 0)  -->
<svg version="1.1" id="Layer_1" xmlns="http://www.w3.org/2000/svg" xmlns:xlink="http://www.w3.org/1999/xlink" x="0px" y="0px"
	 viewBox="0 0 490.323 490.323" style="enable-background:new 0 0 490.323 490.323;" xml:space="preserve">
<g id="XMLID_681_">
	<g>
		<g>
			<path d="M323.886,0H166.438c-28.45,0-51.595,23.146-51.595,51.596v387.131c0,28.45,23.146,51.596,51.595,51.596h157.447
				c28.45,0,51.595-23.145,51.595-51.596V51.596C375.481,23.146,352.335,0,323.886,0z M359.838,438.726
				c0.001,19.826-16.128,35.955-35.952,35.955H166.438c-19.825,0-35.954-16.129-35.954-35.954V199.389h229.354V438.726z
				 M359.839,183.748H130.485V51.596c0-19.825,16.129-35.954,35.953-35.954h157.447c19.825,0,35.954,16.129,35.954,35.954V183.748z"
				/>
			<rect x="153.124" y="222.193" width="15.642" height="53.593"/>
			<rect x="153.124" y="107.351" width="15.642" height="53.593"/>
		</g>
	</g>
</g>
<g>
</g>
<g>
</g>
<g>
</g>
<g>
</g>
<g>
</g>
<g>
</g>
<g>
</g>
<g>
</g>
<g>
</g>
<g>
</g>
<g>
</g>
<g>
</g>
<g>
</g>
<g>
</g>
<g>
</g>
</svg>
